<svg width="28" height="28" viewBox="0 0 28 28" fill="none" xmlns="http://www.w3.org/2000/svg">
<circle cx="14" cy="14" r="14" fill="#F6F3F1"/>
<path d="M17.207 11.3496C17.207 11.8848 17.0449 12.3398 16.7207 12.7148C16.3965 13.0898 15.9414 13.3477 15.3555 13.4883V13.5234C16.0469 13.6094 16.5703 13.8203 16.9258 14.1562C17.2812 14.4883 17.459 14.9375 17.459 15.5039C17.459 16.3281 17.1602 16.9707 16.5625 17.4316C15.9648 17.8887 15.1113 18.1172 14.002 18.1172C13.0723 18.1172 12.248 17.9629 11.5293 17.6543V16.1133C11.8613 16.2812 12.2266 16.418 12.625 16.5234C13.0234 16.6289 13.418 16.6816 13.8086 16.6816C14.4062 16.6816 14.8477 16.5801 15.1328 16.377C15.418 16.1738 15.5605 15.8477 15.5605 15.3984C15.5605 14.9961 15.3965 14.7109 15.0684 14.543C14.7402 14.375 14.2168 14.291 13.498 14.291H12.8477V12.9023H13.5098C14.1738 12.9023 14.6582 12.8164 14.9629 12.6445C15.2715 12.4688 15.4258 12.1699 15.4258 11.748C15.4258 11.0996 15.0195 10.7754 14.207 10.7754C13.9258 10.7754 13.6387 10.8223 13.3457 10.916C13.0566 11.0098 12.7344 11.1719 12.3789 11.4023L11.541 10.1543C12.3223 9.5918 13.2539 9.31055 14.3359 9.31055C15.2227 9.31055 15.9219 9.49023 16.4336 9.84961C16.9492 10.209 17.207 10.709 17.207 11.3496Z" fill="#292933"/>
</svg>
